<svg id="visual" viewBox="0 0 960 540" width="960" height="540" xmlns="http://www.w3.org/2000/svg" xmlns:xlink="http://www.w3.org/1999/xlink" version="1.1"><rect x="0" y="0" width="960" height="540" fill="#fff"></rect><defs><linearGradient id="grad1_0" x1="43.8%" y1="100%" x2="100%" y2="0%"><stop offset="14.444444444444446%" stop-color="#d4a00d" stop-opacity="1"></stop><stop offset="85.55555555555554%" stop-color="#d4a00d" stop-opacity="1"></stop></linearGradient></defs><defs><linearGradient id="grad1_1" x1="43.8%" y1="100%" x2="100%" y2="0%"><stop offset="14.444444444444446%" stop-color="#d4a00d" stop-opacity="1"></stop><stop offset="85.55555555555554%" stop-color="#e9be6b" stop-opacity="1"></stop></linearGradient></defs><defs><linearGradient id="grad1_2" x1="43.8%" y1="100%" x2="100%" y2="0%"><stop offset="14.444444444444446%" stop-color="#f8deb5" stop-opacity="1"></stop><stop offset="85.55555555555554%" stop-color="#e9be6b" stop-opacity="1"></stop></linearGradient></defs><defs><linearGradient id="grad1_3" x1="43.8%" y1="100%" x2="100%" y2="0%"><stop offset="14.444444444444446%" stop-color="#f8deb5" stop-opacity="1"></stop><stop offset="85.55555555555554%" stop-color="#ffffff" stop-opacity="1"></stop></linearGradient></defs><defs><linearGradient id="grad2_0" x1="0%" y1="100%" x2="56.3%" y2="0%"><stop offset="14.444444444444446%" stop-color="#d4a00d" stop-opacity="1"></stop><stop offset="85.55555555555554%" stop-color="#d4a00d" stop-opacity="1"></stop></linearGradient></defs><defs><linearGradient id="grad2_1" x1="0%" y1="100%" x2="56.3%" y2="0%"><stop offset="14.444444444444446%" stop-color="#e9be6b" stop-opacity="1"></stop><stop offset="85.55555555555554%" stop-color="#d4a00d" stop-opacity="1"></stop></linearGradient></defs><defs><linearGradient id="grad2_2" x1="0%" y1="100%" x2="56.3%" y2="0%"><stop offset="14.444444444444446%" stop-color="#e9be6b" stop-opacity="1"></stop><stop offset="85.55555555555554%" stop-color="#f8deb5" stop-opacity="1"></stop></linearGradient></defs><defs><linearGradient id="grad2_3" x1="0%" y1="100%" x2="56.3%" y2="0%"><stop offset="14.444444444444446%" stop-color="#ffffff" stop-opacity="1"></stop><stop offset="85.55555555555554%" stop-color="#f8deb5" stop-opacity="1"></stop></linearGradient></defs><g transform="translate(960, 540)"><path d="M-432 0C-402.2 -44.9 -372.4 -89.8 -357.5 -148.1C-342.7 -206.4 -342.7 -278 -305.5 -305.5C-268.2 -332.9 -193.7 -316.1 -136.6 -329.8C-79.5 -343.5 -39.7 -387.8 0 -432L0 0Z" fill="#fceed9"></path><path d="M-324 0C-301.7 -33.7 -279.3 -67.4 -268.2 -111.1C-257 -154.8 -257 -208.5 -229.1 -229.1C-201.2 -249.7 -145.3 -237.1 -102.5 -247.4C-59.6 -257.7 -29.8 -290.8 0 -324L0 0Z" fill="#f1ce90"></path><path d="M-216 0C-201.1 -22.5 -186.2 -44.9 -178.8 -74C-171.3 -103.2 -171.4 -139 -152.7 -152.7C-134.1 -166.5 -96.9 -158.1 -68.3 -164.9C-39.7 -171.8 -19.9 -193.9 0 -216L0 0Z" fill="#dfaf45"></path><path d="M-108 0C-100.6 -11.2 -93.1 -22.5 -89.4 -37C-85.7 -51.6 -85.7 -69.5 -76.4 -76.4C-67.1 -83.2 -48.4 -79 -34.2 -82.5C-19.9 -85.9 -9.9 -96.9 0 -108L0 0Z" fill="#d4a00d"></path></g><g transform="translate(0, 0)"><path d="M432 0C386.7 39.2 341.5 78.4 328 135.9C314.5 193.3 332.8 269 305.5 305.5C278.1 342 205.1 339.3 146.6 353.8C88 368.4 44 400.2 0 432L0 0Z" fill="#fceed9"></path><path d="M324 0C290 29.4 256.1 58.8 246 101.9C235.9 145 249.6 201.7 229.1 229.1C208.6 256.5 153.8 254.5 109.9 265.4C66 276.3 33 300.2 0 324L0 0Z" fill="#f1ce90"></path><path d="M216 0C193.4 19.6 170.7 39.2 164 67.9C157.3 96.6 166.4 134.5 152.7 152.7C139.1 171 102.5 169.6 73.3 176.9C44 184.2 22 200.1 0 216L0 0Z" fill="#dfaf45"></path><path d="M108 0C96.7 9.8 85.4 19.6 82 34C78.6 48.3 83.2 67.2 76.4 76.4C69.5 85.5 51.3 84.8 36.6 88.5C22 92.1 11 100.1 0 108L0 0Z" fill="#d4a00d"></path></g></svg>